<?xml version="1.0" encoding="utf-8"?>
<!-- Generator: Adobe Illustrator 18.1.1, SVG Export Plug-In . SVG Version: 6.00 Build 0)  -->
<svg version="1.1" xmlns="http://www.w3.org/2000/svg" xmlns:xlink="http://www.w3.org/1999/xlink" x="0px" y="0px"
	 viewBox="0 0 759 237" enable-background="new 0 0 759 237" xml:space="preserve">
<g id="Layer_2">
	<line fill="#F9F9F9" x1="235" y1="236.7" x2="144" y2="236.7"/>
	<line fill="#F9F9F9" x1="144" y1="0.2" x2="235" y2="0.2"/>
</g>
<g id="Layer_1">
	<path fill="#F9F9F9" d="M144,236.7H0V0h144V236.7z M107,88.6c-7,0-18.1,2.1-24.4,14.5c-4-9.3-12.9-14.5-23.1-14.5
		c-9.9,0-18.9,4.6-22.5,12.1V90.1h-13v70h13v-37.9c0-14.8,9.9-21,19.8-21c9.3,0,15.7,7.4,15.7,19.2v39.7h13v-35.7l0.1,0.6
		c-1.2-13.5,6.3-24,18.7-23.8c10.2,0,16.6,7.5,16.6,19.2v39.7h13v-40.5C134.1,100,124.5,88.6,107,88.6z"/>
	<path fill="#F9F9F9" d="M235,236.7h-91V0.2h91V236.7z M211.2,90.1V101c-4.6-8.2-14.5-12.4-25-12.4c-19.2,0-34.9,14.2-34.9,36.4
		c0,22,15.9,36.6,35.1,36.6c10,0,20.2-4.5,24.9-12.6v11.1h13v-70H211.2z M187.4,149.3c-12.7,0-22.9-10.5-22.9-24.4
		c0-14.1,10.2-24,22.9-24c11.5,0,23.8,8.8,23.8,24C211.2,139.9,200,149.3,187.4,149.3z"/>
	<path fill="#F9F9F9" d="M321,237h-86V0.2h86V237z M283.4,88.6c-7.6,0-19,3.6-23.2,12.1V90.1h-13v70h13v-37.9
		c0-15.1,11.7-20.7,21.4-20.7c9.8,0,16.9,7.2,16.9,18.9v39.7h13v-40.5C311.7,100,300.8,88.6,283.4,88.6z"/>
	<path fill="#F9F9F9" d="M412,237h-91V0.2h91V237z M388.7,90.1V101c-4.6-8.1-14.5-12.4-25-12.4c-19.2,0-34.9,14.2-34.9,36.4
		c0,22,15.9,36.6,35.1,36.6c10,0,20.2-4.5,24.9-12.6v1.4c0,23.7-9.6,32.4-25,32.4c-7.8,0-16-4.3-20.4-12.3l-11.1,5.8
		c6.9,12.3,18.8,18.8,31.5,18.8c23.1,0,38.1-12.5,38.1-45.6V90.1H388.7z M364.8,149.3c-12.8,0-22.9-10.5-22.9-24.4
		c0-14.1,10.2-24,22.9-24c11.5,0,23.8,8.8,23.8,24C388.7,139.9,377.4,149.3,364.8,149.3z"/>
	<path fill="#F9F9F9" d="M501,237h-89V0.2h89V237z M456.3,161.6c19.9,0,36.7-14.5,36.7-36.7c0-22.2-16.8-36.3-36.7-36.3
		s-36.6,14.1-36.6,36.3C419.7,147.1,436.4,161.6,456.3,161.6z M456.3,149.3c-12.7,0-23.4-9.9-23.4-24.4c0-14.4,10.7-24,23.4-24
		c12.9,0,23.7,9.6,23.7,24C480,139.4,469.2,149.3,456.3,149.3z"/>
	<path fill="#F9F9F9" d="M536,237h-35V0.2h35V237z M511.2,160.1h13V51.8h-13V160.1z"/>
	<path fill="#F9F9F9" d="M570,236.7h-34V0.2h34V236.7z M553.4,73c5.1,0,9.3-3.8,9.3-8.7s-4.2-8.7-9.3-8.7c-5,0-9.2,3.8-9.2,8.7
		S548.4,73,553.4,73z M546.9,160.1h13v-70h-13V160.1z"/>
	<path fill="#F9F9F9" d="M662,237h-92V0.2h92V237z M638,90.1V101c-4.6-8.2-14.5-12.4-25-12.4c-19.2,0-34.9,14.2-34.9,36.4
		c0,22,15.9,36.6,35.1,36.6c10,0,20.2-4.5,24.9-12.6v11.1h13v-70H638z M614.1,149.3c-12.8,0-22.9-10.5-22.9-24.4
		c0-14.1,10.2-24,22.9-24c11.5,0,23.8,8.8,23.8,24C638,139.9,626.7,149.3,614.1,149.3z"/>
	<path fill="#F9F9F9" d="M759,236.7h-97V0.2h97V236.7z M710.1,88.6c-7.6,0-19,3.6-23.2,12.1V90.1h-13v70h13v-37.9
		c0-15.1,11.7-20.7,21.4-20.7c9.7,0,16.9,7.2,16.9,18.9v39.7h13v-40.5C738.5,100,727.5,88.6,710.1,88.6z"/>
</g>
<g id="Layer_2_copy" display="none">
	<line display="inline" fill="#F9F9F9" x1="235" y1="236.7" x2="144" y2="236.7"/>
	<line display="inline" fill="#F9F9F9" x1="144" y1="0.2" x2="235" y2="0.2"/>
	<rect x="0" display="inline" fill="#F9F9F9" width="144" height="236.7"/>
	<rect x="144" y="0.2" display="inline" fill="#F9F9F9" width="91" height="236.5"/>
	<rect x="235" y="0.2" display="inline" fill="#F9F9F9" width="86" height="236.8"/>
	<rect x="321" y="0.2" display="inline" fill="#F9F9F9" width="91" height="236.8"/>
	<rect x="412" y="0.2" display="inline" fill="#F9F9F9" width="89" height="236.8"/>
	<rect x="501" y="0.2" display="inline" fill="#F9F9F9" width="35" height="236.8"/>
	<rect x="536" y="0.2" display="inline" fill="#F9F9F9" width="34" height="236.5"/>
	<rect x="570" y="0.2" display="inline" fill="#F9F9F9" width="92" height="236.8"/>
	<rect x="662" y="0.2" display="inline" fill="#F9F9F9" width="97" height="236.5"/>
</g>
<g id="Layer_1_copy" display="none">
	<g display="inline">
		<path d="M134.1,119.6v40.5h-13v-39.7c0-11.7-6.4-19.2-16.6-19.2C92,101,84.5,111.5,85.7,125l-0.1-0.6v35.7h-13v-39.7
			c0-11.8-6.4-19.2-15.7-19.2c-9.9,0-19.8,6.1-19.8,21v37.9h-13v-70h13v10.6c3.6-7.5,12.6-12.1,22.5-12.1c10.2,0,19,5.2,23.1,14.5
			c6.3-12.4,17.4-14.5,24.4-14.5C124.5,88.6,134.1,100,134.1,119.6z"/>
		<path d="M224.3,90.1v70h-13V149c-4.6,8.1-14.8,12.6-24.9,12.6c-19.2,0-35.1-14.5-35.1-36.6c0-22.2,15.7-36.4,34.9-36.4
			c10.5,0,20.4,4.2,25,12.4V90.1H224.3z M211.2,124.9c0-15.1-12.3-24-23.8-24c-12.7,0-22.9,9.9-22.9,24c0,13.9,10.2,24.4,22.9,24.4
			C200,149.3,211.2,139.9,211.2,124.9z"/>
		<path d="M311.6,119.6v40.5h-13v-39.7c0-11.7-7.2-18.9-16.9-18.9c-9.7,0-21.4,5.5-21.4,20.7v37.9h-13v-70h13v10.6
			c4.2-8.5,15.6-12.1,23.2-12.1C300.8,88.6,311.7,100,311.6,119.6z"/>
		<path d="M401.7,90.1v59.4c0,33.1-15,45.6-38.1,45.6c-12.7,0-24.6-6.5-31.5-18.8l11.1-5.8c4.4,8,12.6,12.3,20.4,12.3
			c15.4,0,25-8.7,25-32.4V149c-4.6,8.1-14.8,12.6-24.9,12.6c-19.2,0-35.1-14.5-35.1-36.6c0-22.2,15.7-36.4,34.9-36.4
			c10.5,0,20.4,4.3,25,12.4V90.1H401.7z M388.7,124.9c0-15.1-12.3-24-23.8-24c-12.8,0-22.9,9.9-22.9,24c0,13.9,10.2,24.4,22.9,24.4
			C377.4,149.3,388.7,139.9,388.7,124.9z"/>
		<path d="M419.7,124.9c0-22.2,16.6-36.3,36.6-36.3s36.7,14.1,36.7,36.3c0,22.2-16.8,36.7-36.7,36.7S419.7,147.1,419.7,124.9z
			 M480,124.9c0-14.4-10.8-24-23.7-24c-12.7,0-23.4,9.6-23.4,24c0,14.5,10.7,24.4,23.4,24.4C469.2,149.3,480,139.4,480,124.9z"/>
		<path d="M511.2,51.8h13v108.3h-13V51.8z"/>
		<path d="M544.2,64.3c0-4.9,4.2-8.7,9.2-8.7c5.1,0,9.3,3.8,9.3,8.7s-4.2,8.7-9.3,8.7C548.4,73,544.2,69.2,544.2,64.3z M546.9,90.1
			h13v70h-13V90.1z"/>
		<path d="M651,90.1v70h-13V149c-4.6,8.1-14.8,12.6-24.9,12.6c-19.2,0-35.1-14.5-35.1-36.6c0-22.2,15.7-36.4,34.9-36.4
			c10.5,0,20.4,4.2,25,12.4V90.1H651z M638,124.9c0-15.1-12.3-24-23.8-24c-12.8,0-22.9,9.9-22.9,24c0,13.9,10.2,24.4,22.9,24.4
			C626.7,149.3,638,139.9,638,124.9z"/>
		<path d="M738.3,119.6v40.5h-13v-39.7c0-11.7-7.2-18.9-16.9-18.9c-9.8,0-21.4,5.5-21.4,20.7v37.9h-13v-70h13v10.6
			c4.2-8.5,15.6-12.1,23.2-12.1C727.5,88.6,738.5,100,738.3,119.6z"/>
	</g>
</g>
</svg>
